<svg width="134" height="29" viewBox="0 0 134 29" fill="none" xmlns="http://www.w3.org/2000/svg">
<g clip-path="url(#clip0_1097_273)">
<path d="M12.0243 21.3014C10.6884 20.0287 9.88688 18.2762 9.88688 16.2733C9.88688 14.2704 10.6679 12.5179 11.9421 11.2452C13.0519 10.1186 13.0519 8.36611 11.9421 7.2395C10.8323 6.11288 9.1059 6.11288 7.99608 7.2395C5.797 9.55532 4.37891 12.7474 4.37891 16.2733C4.37891 19.7992 5.797 22.9913 8.07829 25.3071C9.18811 26.4337 10.9145 26.4337 12.0243 25.3071C13.0314 24.1805 13.0314 22.428 12.0243 21.3014Z" fill="#FFD85F"/>
<path d="M12.0245 11.2452C13.2781 9.88906 15.0251 9.09625 16.9775 9.09625C18.93 9.09625 20.6769 9.88906 21.9306 11.1826C23.0404 12.3092 24.7668 12.3092 25.8766 11.1826C26.9864 10.056 26.9864 8.30345 25.8766 7.17683C23.5953 4.94445 20.4508 3.50488 16.9775 3.50488C13.5042 3.50488 10.3597 4.94445 8.07846 7.26028C6.96864 8.3869 6.96864 10.1394 8.07846 11.266C9.18827 12.2675 10.9147 12.2675 12.0245 11.2452Z" fill="#3BB4E7"/>
<path d="M21.9306 21.3014C20.6769 22.6575 18.93 23.4503 16.9775 23.4503C15.0251 23.4503 13.2781 22.6575 12.0245 21.364C10.9147 20.2374 9.18827 20.2374 8.07846 21.364C6.96864 22.4906 6.96864 24.2431 8.07846 25.3698C10.3597 27.6021 13.5042 29.0417 16.9775 29.0417C20.4508 29.0417 23.5953 27.6021 25.8766 25.2863C26.9864 24.1597 26.9864 22.4072 25.8766 21.2806C24.7668 20.2791 23.0404 20.2791 21.9306 21.3014Z" fill="#ED5C68"/>
<path d="M10.0509 12.0381C11.5718 12.0381 12.8049 10.7865 12.8049 9.24246C12.8049 7.69845 11.5718 6.44678 10.0509 6.44678C8.52988 6.44678 7.29688 7.69845 7.29688 9.24246C7.29688 10.7865 8.52988 12.0381 10.0509 12.0381Z" fill="#308BC5"/>
<path d="M10.0509 26.0999C11.5718 26.0999 12.8049 24.8482 12.8049 23.3042C12.8049 21.7602 11.5718 20.5085 10.0509 20.5085C8.52988 20.5085 7.29688 21.7602 7.29688 23.3042C7.29688 24.8482 8.52988 26.0999 10.0509 26.0999Z" fill="#D5465F"/>
<path d="M38.2489 18.9022C39.0299 18.2554 39.1943 18.6727 39.8314 19.2986C40.1397 19.6116 41.0851 20.2583 40.4685 20.7382C39.2149 21.7813 38.105 22.2612 36.4609 22.2612C32.8437 22.2612 30.2336 19.4655 30.398 15.8562C30.4802 14.1871 31.0968 12.6641 32.371 11.6209C33.5425 10.6612 34.9606 10.1813 36.4609 10.2648C37.2418 10.2648 37.879 10.4317 38.5777 10.6612C39.0504 10.8281 39.5231 11.0576 39.9136 11.3706C40.6946 12.0173 40.3041 12.3303 39.7492 12.977C39.5848 13.1439 39.5231 13.29 39.3587 13.3734C39.0504 13.6864 38.8038 13.9367 38.4133 13.6029C37.6323 13.0396 36.5225 12.7267 35.5771 12.9562C32.4326 13.749 32.5765 19.4238 36.4403 19.4238C37.0569 19.549 37.7762 19.3195 38.2489 18.9022ZM125.719 22.0317C125.164 22.0317 124.773 21.6353 124.773 21.072V8.51228C124.773 7.94897 125.164 7.55257 125.719 7.55257H126.746C127.301 7.55257 127.692 7.94897 127.692 8.51228V21.072C127.692 21.6353 127.301 22.0317 126.746 22.0317H125.719ZM120.293 20.5921C119.183 21.6353 118.094 22.1986 116.511 22.1986C113.285 22.1986 111.784 19.4864 111.784 16.5238V11.4123C111.784 10.849 112.175 10.4526 112.73 10.4526H113.757C114.312 10.4526 114.703 10.849 114.703 11.4123V16.5238C114.703 18.1929 115.566 19.4864 117.375 19.4864C119.101 19.4864 120.211 17.9634 120.211 16.3777V11.4123C120.211 10.849 120.601 10.4526 121.156 10.4526H122.184C122.739 10.4526 123.129 10.849 123.129 11.4123V21.072C123.129 21.6353 122.739 22.0317 122.184 22.0317H121.321C120.766 22.0317 120.457 21.5518 120.375 21.072L120.293 20.5921ZM108.003 10.5152H109.976C110.531 10.5152 110.921 10.995 110.921 11.4749V12.1216C110.921 12.6849 110.531 13.0813 109.976 13.0813H108.003V21.072C108.003 21.6353 107.612 22.0317 107.058 22.0317H106.03C105.475 22.0317 105.084 21.6353 105.084 21.072V10.1188C105.084 7.71948 106.42 5.80005 108.866 5.57056H110.366C110.921 5.57056 111.312 6.05041 111.312 6.53026V7.17703C111.312 7.74034 110.921 8.13674 110.366 8.13674H109.585C108.414 8.13674 107.941 9.013 107.941 10.1396V10.536H108.003V10.5152ZM100.83 10.5152H103.029C103.584 10.5152 103.975 10.9116 103.975 11.4749V12.1216C103.975 12.6849 103.584 13.0813 103.029 13.0813H100.83V17.9425C100.83 18.9022 101.303 19.3821 102.248 19.3821H102.721C103.276 19.3821 103.666 19.7785 103.666 20.3418V21.0511C103.666 21.6144 103.276 22.0108 102.721 22.0108H101.385C99.0216 21.8439 97.994 20.3418 97.994 17.9425V8.51228C97.994 7.94897 98.3845 7.55257 98.9394 7.55257H99.967C100.522 7.55257 100.912 7.94897 100.912 8.51228V10.5152H100.83ZM69.2621 10.5152H71.4612C72.0161 10.5152 72.4066 10.9116 72.4066 11.4749V12.1216C72.4066 12.6849 72.0161 13.0813 71.4612 13.0813H69.2621V17.9425C69.2621 18.9022 69.7348 19.4655 70.6802 19.4655H71.1529C71.7078 19.4655 72.0983 19.8619 72.0983 20.4252V21.072C72.0983 21.6353 71.7078 22.0317 71.1529 22.0317H70.5158C67.9262 22.0317 66.4259 20.9051 66.4259 17.9634V8.53314C66.4259 7.96983 66.8164 7.57343 67.3713 7.57343H68.3989C68.9538 7.57343 69.3443 7.96983 69.3443 8.53314V10.536C69.3443 10.5152 69.2621 10.5152 69.2621 10.5152ZM56.4376 11.8713C57.4652 10.8281 58.6366 10.2648 60.0547 10.2648C63.2814 10.2648 64.9461 12.8936 64.9461 15.9396V21.072C64.9461 21.6353 64.5556 22.0317 64.0007 22.0317H62.9731C62.4182 22.0317 62.0277 21.6353 62.0277 21.072V15.9605C62.0277 14.2914 61.1645 12.9979 59.356 12.9979C57.6296 12.9979 56.5198 14.4375 56.5198 16.1065V21.072C56.5198 21.6353 56.1293 22.0317 55.5744 22.0317H54.5468C53.9918 22.0317 53.6014 21.6353 53.6014 21.072V11.3914C53.6014 10.8281 53.9918 10.4317 54.5468 10.4317H55.4099C55.9649 10.4317 56.2731 10.9116 56.3553 11.3914L56.4376 11.8713ZM88.0879 11.8713C89.1155 10.8281 90.2869 10.2648 91.705 10.2648C94.9317 10.2648 96.5965 12.8936 96.5965 15.9396V21.072C96.5965 21.6353 96.206 22.0317 95.6511 22.0317H94.6234C94.0685 22.0317 93.678 21.6353 93.678 21.072V15.9605C93.678 14.2914 92.8149 12.9979 91.0063 12.9979C89.2799 12.9979 88.1701 14.4375 88.1701 16.1065V21.072C88.1701 21.6353 87.7796 22.0317 87.2247 22.0317H86.1971C85.6422 22.0317 85.2517 21.6353 85.2517 21.072V11.3914C85.2517 10.8281 85.6422 10.4317 86.1971 10.4317H87.0603C87.6152 10.4317 87.9234 10.9116 88.0057 11.3914L88.0879 11.8713ZM46.7369 10.2022C43.2636 10.2022 40.8385 12.7684 40.8385 16.2734C40.8385 19.7785 43.2842 22.3447 46.7369 22.3447C50.2719 22.3447 52.7176 19.8619 52.7176 16.2734C52.7176 12.7475 50.2102 10.2022 46.7369 10.2022ZM75.5716 17.3166C75.7977 18.9231 77.3802 19.6324 78.8805 19.6324C79.5793 19.6324 80.3808 19.4655 80.9974 19.1526C81.0796 19.0691 81.2234 19.0691 81.3057 18.9857C81.6961 18.7562 82.0044 18.6727 82.3333 18.9857L82.8882 19.549L83.3609 20.0288C83.8336 20.6756 83.5253 20.8216 82.9704 21.1554C81.7989 21.9482 80.2986 22.3447 78.8805 22.3447C75.0989 22.3447 72.571 20.0288 72.571 16.19C72.571 12.518 75.0989 10.1188 78.6339 10.1188C82.3333 10.1188 84.3885 12.2677 84.4707 16.0439C84.4707 17.0871 84.5529 17.4 83.5253 17.4H75.5716V17.3166ZM46.7369 12.9144C48.5455 12.9144 49.7376 14.5209 49.7376 16.2734C49.7376 18.1094 48.6277 19.549 46.7369 19.549C44.8461 19.549 43.7363 18.1094 43.7363 16.2734C43.7363 14.4375 44.9283 12.9144 46.7369 12.9144ZM75.6333 14.8339H81.5317C81.3057 13.3108 80.1136 12.7475 78.6955 12.7475C77.2158 12.7475 76.0443 13.4777 75.6333 14.8339Z" fill="#2A3039"/>
</g>
<defs>
<clipPath id="clip0_1097_273">
<rect width="134" height="29" fill="white"/>
</clipPath>
</defs>
</svg>
