<svg width="130" height="34" viewBox="0 0 130 34" fill="none" xmlns="http://www.w3.org/2000/svg">
<path fill-rule="evenodd" clip-rule="evenodd" d="M30.58 18.3756L33.0459 20.8819C33.2409 21.0807 33.3514 21.351 33.3514 21.6316V23.0416C33.3514 26.8194 32.9642 28.1898 32.2373 29.5715C31.5273 30.9359 30.4295 32.0523 29.0862 32.7757C27.7269 33.5132 26.3788 33.9069 22.6623 33.9069H16.1363C16.052 33.9064 15.9763 33.8546 15.9442 33.7756C15.9121 33.6965 15.93 33.6057 15.9896 33.5452V33.5461L18.4546 31.0399C18.6496 30.8411 18.9151 30.729 19.1918 30.729H22.2083C24.9954 30.729 26.0056 30.4342 27.025 29.8795C28.0326 29.3371 28.8562 28.5 29.3888 27.4768C29.9247 26.458 30.2147 25.4475 30.2242 22.7194L30.2244 18.5254C30.2249 18.4402 30.2756 18.3635 30.3532 18.3308C30.4308 18.2981 30.5202 18.3158 30.58 18.3756ZM0.355592 16.2555L2.82246 18.7618C3.01743 18.9605 3.12791 19.2308 3.12791 19.5115V22.5782C3.12791 25.4123 3.41759 26.4398 3.96351 27.4759C4.49593 28.4989 5.31916 29.336 6.32639 29.8785C7.34581 30.4333 8.35688 30.7281 11.1441 30.7281H15.1308C15.2154 30.7278 15.2918 30.7793 15.3244 30.8585C15.3569 30.9377 15.3391 31.029 15.2793 31.0898L12.8125 33.5961C12.6175 33.7948 12.352 33.9069 12.0762 33.9069H10.6891C6.97258 33.9069 5.62542 33.5132 4.26618 32.7748C2.92254 32.0515 1.82431 30.9351 1.11413 29.5706C0.397256 28.208 0.01082 26.8565 0.000223924 23.1967L0 16.4053C0.000443464 16.32 0.0511924 16.2434 0.128801 16.2107C0.206409 16.178 0.295767 16.1957 0.355592 16.2555ZM49.133 9.44288C50.1051 9.44288 50.9797 9.62578 51.7568 9.99123C52.5339 10.3557 53.1959 10.8577 53.7436 11.4935C54.3022 12.1507 54.7252 12.9149 54.9878 13.7408C55.2709 14.6026 55.4121 15.5303 55.4121 16.5221C55.4197 17.4685 55.2674 18.4092 54.9618 19.3034C54.6838 20.1253 54.2572 20.8874 53.7037 21.5506C53.167 22.1856 52.5033 22.6977 51.7568 23.0529C50.9775 23.4227 50.1261 23.6101 49.2658 23.6011C48.6651 23.6011 48.1359 23.5351 47.6763 23.4042C47.2513 23.2872 46.8421 23.1173 46.4582 22.8984C46.1342 22.7142 45.8321 22.493 45.5576 22.2391C45.3325 22.0305 45.1282 21.7999 44.9476 21.5506C44.9039 21.5506 44.8683 21.5863 44.8678 21.6307V28.4347C44.8678 29.1161 44.3232 29.6685 43.6515 29.6685H42.906C42.2343 29.6685 41.6897 29.1161 41.6897 28.4347V11.0141C41.6897 10.3331 42.2338 9.78025 42.906 9.78025H43.7119C44.2624 9.78025 44.709 10.2323 44.709 10.7918V11.7487C44.709 11.7789 44.7331 11.8024 44.7619 11.8024C45.2215 10.9783 45.8389 10.3802 46.6169 10.0044C47.4034 9.62798 48.2634 9.43611 49.133 9.44288ZM25.3696 13.0767L27.8355 15.5859C28.0305 15.7846 28.1401 16.054 28.1401 16.3356V24.3734C28.1401 26.7139 26.2739 28.6117 23.9714 28.6117H21.3318C21.2485 28.6113 21.1734 28.5607 21.1407 28.4829C21.108 28.4052 21.1239 28.3151 21.1814 28.2538V28.2529L24.3938 24.8349C24.6166 24.6089 24.7782 24.3451 24.8794 24.0626C24.9681 23.8232 25.0134 23.5695 25.0131 23.3138V13.2265C25.0132 13.1409 25.0641 13.0637 25.1421 13.0309C25.2201 12.9981 25.3099 13.0162 25.3696 13.0767ZM5.56414 21.5346H5.56321L8.92602 24.801C9.14791 25.027 9.40881 25.1909 9.68548 25.2936C9.91388 25.3821 10.1627 25.4302 10.4227 25.4302H20.344C20.4282 25.4306 20.504 25.4824 20.536 25.5614C20.5681 25.6405 20.5502 25.7313 20.4907 25.7918L18.0229 28.2991C17.8279 28.4968 17.5624 28.6089 17.2866 28.6089H9.38002C8.27319 28.6077 7.21217 28.1604 6.43039 27.3656C5.64861 26.5707 5.2101 25.4934 5.21133 24.3706V21.6872C5.21174 21.6027 5.26164 21.5265 5.3383 21.4933C5.41497 21.4601 5.50373 21.4763 5.56414 21.5346ZM125.937 9.44294C126.751 9.44294 127.567 9.60695 128.388 9.93471C128.701 10.06 129.071 10.2832 129.496 10.6044C129.776 10.8156 129.953 11.1386 129.982 11.4911C130.011 11.8437 129.889 12.192 129.648 12.4476L129.156 12.9684C128.724 13.4266 128.02 13.478 127.528 13.0871C127.418 12.9982 127.303 12.9164 127.183 12.8422C126.808 12.6077 126.378 12.4813 125.937 12.4768C125.355 12.4768 124.833 12.5898 124.375 12.814C123.926 13.0303 123.525 13.3359 123.196 13.7125C122.867 14.0898 122.615 14.5288 122.454 15.0047C122.286 15.4921 122.201 16.0049 122.202 16.5211C122.202 17.0467 122.286 17.5515 122.454 18.0385C122.621 18.5254 122.869 18.9568 123.197 19.3307C123.526 19.7076 123.927 20.0135 124.375 20.2302C124.833 20.4543 125.355 20.5673 125.937 20.5673C126.432 20.5673 126.892 20.459 127.315 20.2443C127.401 20.2 127.494 20.1407 127.594 20.0663C128.1 19.6883 128.807 19.7638 129.224 20.2405L129.707 20.7906C129.938 21.0544 130.041 21.4099 129.985 21.7587C129.93 22.1075 129.723 22.4126 129.422 22.5895C128.656 23.0418 127.817 23.3512 126.945 23.5031C126.556 23.5681 126.22 23.6012 125.937 23.6012C125.013 23.6065 124.097 23.4349 123.235 23.0953C122.414 22.7753 121.665 22.2877 121.036 21.6627C120.405 21.0247 119.905 20.2655 119.566 19.4296C119.204 18.5584 119.023 17.5892 119.023 16.5221C119.023 15.4549 119.204 14.4858 119.566 13.6146C119.905 12.7786 120.405 12.0195 121.036 11.3814C121.665 10.7564 122.414 10.2689 123.235 9.94884C124.097 9.60921 125.013 9.43761 125.937 9.44294ZM81.1373 9.44306C81.9849 9.44306 82.8242 9.59753 83.6543 9.90646C83.9551 10.0185 84.2902 10.2257 84.6607 10.5281C84.9347 10.752 85.0997 11.0854 85.113 11.4421C85.1264 11.7988 84.9868 12.1439 84.7303 12.3883L84.3348 12.7659C83.9072 13.174 83.2534 13.214 82.7806 12.8611C82.1353 12.3807 81.5606 12.1396 81.0583 12.1396C80.634 12.1396 80.219 12.2526 79.8124 12.4768C79.4066 12.7019 79.2033 13.0664 79.2033 13.5722C79.2033 13.9847 79.3704 14.2842 79.7065 14.4716C80.0426 14.6581 80.466 14.8182 80.9785 14.9492C81.491 15.0801 82.0425 15.2157 82.6339 15.356C83.2262 15.4973 83.7777 15.7121 84.2902 16.0022C84.8027 16.2923 85.2261 16.6897 85.5622 17.1964C85.8974 17.7022 86.0654 18.3945 86.0654 19.2751C86.0654 20.0804 85.902 20.7585 85.5752 21.3114C85.2604 21.8514 84.8247 22.3087 84.3032 22.646C83.7624 22.9912 83.1664 23.2382 82.542 23.376C81.8987 23.5248 81.241 23.6003 80.5811 23.6011C79.5923 23.6011 78.6825 23.4504 77.8515 23.1518C77.5266 23.0341 77.1366 22.7986 76.6817 22.4445C76.4018 22.2268 76.2289 21.8966 76.2077 21.5395C76.1865 21.1824 76.3191 20.8335 76.5712 20.5834L76.9008 20.2556C77.3557 19.8029 78.0779 19.7832 78.5562 20.2104C78.7493 20.3827 78.9164 20.5155 79.0576 20.6088C79.5255 20.9187 80.0956 21.0731 80.7659 21.0731C80.9961 21.0731 81.2347 21.0449 81.4817 20.9884C81.7296 20.9318 81.9589 20.8386 82.1706 20.7077C82.3823 20.5758 82.555 20.4129 82.6878 20.216C82.8196 20.0192 82.8864 19.7903 82.8864 19.5285C82.8864 19.0594 82.7184 18.7128 82.3823 18.4887C82.0471 18.2636 81.6228 18.0808 81.1103 17.9405C80.5628 17.7918 80.0107 17.6608 79.4549 17.5477C78.8784 17.4312 78.3211 17.2323 77.7995 16.9572C77.2906 16.6887 76.8539 16.2981 76.5276 15.8194C76.1924 15.3325 76.0243 14.6581 76.0243 13.7973C76.0243 13.0485 76.1701 12.3977 76.4607 11.8448C76.7389 11.3084 77.1331 10.8428 77.6138 10.4829C78.1082 10.1183 78.6656 9.85124 79.2572 9.69548C79.8702 9.52781 80.5023 9.44306 81.1373 9.44306ZM114.388 9.78025C115.061 9.78025 115.605 10.3331 115.605 11.0141V22.03C115.605 22.7115 115.06 23.2639 114.388 23.2639H113.643C112.971 23.2639 112.427 22.7115 112.427 22.03V11.0141C112.427 10.3331 112.971 9.78025 113.643 9.78025H114.388ZM103.922 9.44306C104.77 9.44306 105.485 9.59282 106.068 9.89233C106.635 10.1778 107.122 10.6026 107.485 11.128C107.848 11.6527 108.108 12.2658 108.266 12.9684C108.426 13.6711 108.505 14.4245 108.505 15.2289V22.0291C108.505 22.7105 107.96 23.2629 107.289 23.2629H106.542C105.87 23.2629 105.326 22.7105 105.326 22.0291V15.6226C105.326 15.211 105.291 14.8126 105.22 14.4293C105.159 14.0717 105.033 13.7286 104.849 13.4177C104.674 13.1292 104.427 12.8921 104.134 12.7301C103.833 12.5606 103.445 12.4768 102.968 12.4768C102.474 12.4768 102.054 12.5747 101.71 12.7716C101.371 12.9632 101.08 13.2325 100.862 13.558C100.635 13.8992 100.473 14.2803 100.385 14.6817C100.288 15.1006 100.239 15.5295 100.239 15.9598V22.03C100.239 22.7115 99.6944 23.2639 99.0227 23.2639H98.2763C97.6045 23.2639 97.06 22.7115 97.06 22.03V15.2298C97.06 14.3869 96.8929 13.7172 96.5568 13.2209C96.2207 12.7254 95.6655 12.4768 94.8875 12.4768C94.3582 12.4768 93.9117 12.571 93.5496 12.7575C93.1875 12.9458 92.8876 13.1982 92.649 13.5166C92.4064 13.8432 92.2306 14.2156 92.1318 14.612C92.025 15.0341 91.972 15.4684 91.974 15.9042V22.03C91.974 22.3574 91.8457 22.6714 91.6174 22.9028C91.3892 23.1342 91.0796 23.2641 90.7568 23.2639H90.0104C89.3386 23.2639 88.7941 22.7115 88.7941 22.03V11.0141C88.7941 10.3331 89.3391 9.78025 90.0104 9.78025H90.5981C91.2693 9.78025 91.8143 10.3331 91.8143 11.0141V11.8872C92.1623 11.2246 92.6456 10.645 93.232 10.1871C93.8587 9.69077 94.7018 9.44306 95.762 9.44306C97.7582 9.44306 99.0821 10.2766 99.7358 11.9428C100.195 11.0819 100.769 10.4499 101.458 10.0468C102.147 9.64462 102.968 9.44306 103.922 9.44306ZM65.7716 9.44306C65.9656 9.44306 66.156 9.4619 66.3407 9.49957C66.6719 9.56609 66.9106 9.86068 66.9108 10.2031V12.053C66.9109 12.2525 66.8237 12.4419 66.6728 12.5699C66.5218 12.698 66.3227 12.7515 66.129 12.716C65.88 12.6697 65.6274 12.6461 65.3742 12.6454C64.6315 12.6454 64.0363 12.7904 63.586 13.0805C63.1357 13.3716 62.7913 13.7031 62.5527 14.0789C62.3279 14.4207 62.1662 14.8011 62.0755 15.2016C61.9956 15.5764 61.9566 15.8571 61.9566 16.0445V22.03C61.9566 22.7115 61.4121 23.2639 60.7404 23.2639H59.9939C59.3222 23.2639 58.7776 22.7115 58.7776 22.03V11.0141C58.7776 10.3331 59.3217 9.78025 59.9939 9.78025H60.9038C61.485 9.78025 61.9566 10.2578 61.9566 10.8474V11.8618C61.9566 11.891 61.9798 11.9154 62.0096 11.9154C62.3624 11.128 62.8656 10.5196 63.5192 10.0892C64.1728 9.65875 64.9239 9.44306 65.7716 9.44306ZM71.4963 9.78025C72.1676 9.78025 72.7126 10.3331 72.7126 11.0141V22.03C72.7126 22.7115 72.1681 23.2639 71.4963 23.2639H70.7499C70.0782 23.2639 69.5336 22.7115 69.5336 22.03V11.0141C69.5336 10.3331 70.0777 9.78025 70.7499 9.78025H71.4963ZM12.0196 5.29795C12.1029 5.29836 12.178 5.34898 12.2107 5.42676C12.2434 5.50453 12.2275 5.59457 12.17 5.65585L8.95666 9.0748C8.73383 9.30084 8.57321 9.56456 8.47201 9.84712C8.38296 10.0864 8.33735 10.3401 8.33739 10.5959V20.6832C8.33657 20.7683 8.28569 20.8446 8.20816 20.877C8.13064 20.9095 8.0415 20.8918 7.98179 20.832L5.51586 18.3229C5.32069 18.124 5.21118 17.8548 5.21133 17.5741V9.53631C5.21133 7.19579 7.07749 5.29795 9.38002 5.29795H12.0196ZM48.498 12.4768C47.9149 12.4768 47.3931 12.5898 46.9345 12.814C46.486 13.0303 46.0851 13.3359 45.7554 13.7125C45.427 14.0898 45.175 14.5288 45.0135 15.0047C44.846 15.4922 44.7613 16.0049 44.7628 16.5211C44.7628 17.0467 44.8464 17.5515 45.0135 18.0385C45.1816 18.5254 45.4285 18.9568 45.7563 19.3307C46.0859 19.7077 46.4869 20.0136 46.9354 20.2302C47.3941 20.4543 47.9149 20.5673 48.498 20.5673C49.081 20.5673 49.6019 20.4543 50.0605 20.2302C50.509 20.0136 50.91 19.7077 51.2397 19.3307C51.5665 18.9568 51.8134 18.5254 51.9824 18.0385C52.1495 17.5515 52.2331 17.0467 52.2331 16.5221C52.2331 15.9974 52.1495 15.4917 51.9824 15.0057C51.8208 14.5294 51.5684 14.09 51.2397 13.7125C50.9099 13.3359 50.509 13.0303 50.0605 12.814C49.6019 12.5889 49.081 12.4768 48.498 12.4768ZM29.0862 1.13211C30.4295 1.85552 31.5273 2.9719 32.2373 4.33631C32.9541 5.69883 33.3406 7.05035 33.3512 10.7102L33.3514 17.5016C33.3514 17.5873 33.3004 17.6644 33.2224 17.6972C33.1444 17.73 33.0546 17.7119 32.9949 17.6514V17.6504L30.5299 15.1451C30.3341 14.9461 30.2243 14.6764 30.2244 14.3954V11.3287C30.2244 8.49461 29.9338 7.46705 29.3888 6.431C28.8562 5.40781 28.0326 4.57069 27.025 4.02832C26.0065 3.47357 24.9954 3.17877 22.2083 3.17877H18.2206C18.1364 3.17832 18.0606 3.12654 18.0286 3.04749C17.9965 2.96844 18.0144 2.87758 18.0739 2.8171L20.5389 0.310813C20.7339 0.112081 20.9994 0 21.2761 0H22.6623C26.3788 0 27.7269 0.393696 29.0862 1.13211ZM17.2151 0C17.2994 0.000453951 17.3751 0.0522241 17.4072 0.131279C17.4393 0.210333 17.4214 0.30119 17.3618 0.361673L14.8968 2.86796C14.7009 3.06669 14.4363 3.17877 14.1596 3.17877H11.1431C8.35596 3.17877 7.34488 3.47357 6.32546 4.02832C5.31789 4.57069 4.49431 5.40781 3.96165 6.431C3.41666 7.46705 3.12606 8.49461 3.12606 11.3287V15.3824C3.12561 15.4677 3.07486 15.5443 2.99726 15.577C2.91965 15.6097 2.83029 15.592 2.77046 15.5322L0.306385 13.0259C0.110307 12.8271 0 12.5574 0 12.2762V10.8662C0 7.08842 0.387159 5.71802 1.11413 4.33631C1.82407 2.9719 2.92195 1.85552 4.26525 1.13211C5.60561 0.403952 6.93513 0.0110025 10.5347 0.000227702L17.2151 0ZM23.9714 5.29795C26.2739 5.29795 28.1401 7.19579 28.1401 9.53631V12.2197C28.1397 12.3042 28.0898 12.3804 28.0131 12.4136C27.9364 12.4467 27.8477 12.4306 27.7873 12.3722L24.4263 9.10588C24.2035 8.87983 23.9435 8.71595 23.6659 8.61329C23.4304 8.52278 23.1806 8.4765 22.9287 8.47672H13.0074C12.923 8.47664 12.8469 8.42501 12.8146 8.34587C12.7823 8.26673 12.8001 8.17565 12.8598 8.11504L15.3285 5.60782C15.5235 5.41003 15.7881 5.29795 16.0648 5.29795H23.9714ZM71.0962 3.17877C71.6792 3.17877 72.1695 3.37091 72.5668 3.75424C72.9642 4.13852 73.1629 4.62075 73.1629 5.20094C73.1629 5.78206 72.9642 6.26429 72.5668 6.64763C72.1695 7.03191 71.6792 7.22405 71.0962 7.22405C70.5141 7.22405 70.0322 7.02249 69.6525 6.62032C69.2832 6.24351 69.0782 5.73226 69.0833 5.20094C69.0833 4.65843 69.2727 4.18561 69.6525 3.7825C70.0331 3.38033 70.5141 3.17877 71.0962 3.17877ZM113.989 3.17877C114.572 3.17877 115.062 3.37091 115.46 3.75424C115.857 4.13852 116.056 4.62075 116.056 5.20094C116.056 5.78206 115.857 6.26429 115.46 6.64763C115.062 7.03191 114.572 7.22405 113.989 7.22405C113.406 7.22405 112.925 7.02249 112.545 6.62032C112.176 6.24366 111.97 5.7324 111.975 5.20094C111.975 4.65843 112.166 4.18561 112.545 3.7825C112.925 3.38033 113.406 3.17877 113.989 3.17877Z" fill="#212735"/>
</svg>
