<svg width="133" height="34" viewBox="0 0 133 34" fill="none" xmlns="http://www.w3.org/2000/svg">
<path fill-rule="evenodd" clip-rule="evenodd" d="M28.5201 4.70215H9.31641V14.4955H18.7655C19.1022 14.4955 19.3753 14.7733 19.3753 15.1157V24.5939H29.1298V5.32345C29.1301 5.15877 29.066 5.00074 28.9516 4.88419C28.8373 4.76764 28.682 4.70215 28.5201 4.70215Z" fill="#8E75FF"/>
<path opacity="0.405" fill-rule="evenodd" clip-rule="evenodd" d="M9.31372 4.70215V14.4955H0.30489C0.181096 14.4953 0.0696787 14.4191 0.0227778 14.3026C-0.0241232 14.1861 0.00276972 14.0523 0.0908714 13.9638L9.31372 4.70215ZM19.8931 33.8658C19.8054 33.9534 19.6746 33.979 19.5612 33.9307C19.4478 33.8824 19.3739 33.7697 19.3737 33.6447V24.5939H29.1283L19.8931 33.8646V33.8658Z" fill="#8E75FF"/>
<path opacity="0.405" fill-rule="evenodd" clip-rule="evenodd" d="M9.3125 14.4956H19.0682C19.2354 14.4956 19.3725 14.6339 19.3725 14.8051V24.594H9.92334C9.5866 24.594 9.31361 24.3163 9.31361 23.9738V14.4956H9.3125Z" fill="#8E75FF"/>
<path fill-rule="evenodd" clip-rule="evenodd" d="M127.493 4.08415C128.038 4.63289 128.681 4.90612 129.424 4.90612C130.189 4.90612 130.845 4.63289 131.39 4.08415C131.935 3.53541 132.207 2.88917 132.207 2.14202C132.207 1.39601 131.935 0.742969 131.39 0.182893C130.878 -0.363064 130.165 -0.667469 129.424 -0.65722C128.681 -0.65722 128.038 -0.377182 127.493 0.18176C126.948 0.742969 126.676 1.39488 126.676 2.14316C126.676 2.88917 126.948 3.53541 127.493 4.08415ZM68.3482 11.2404C68.3482 11.2971 68.3014 11.3447 68.2446 11.3447H64.4156V18.6234C64.4156 19.23 64.5672 19.6733 64.8682 19.9533C65.1692 20.2334 65.6106 20.3898 66.1902 20.425C66.7208 20.4579 67.3673 20.4556 68.1309 20.4193L68.239 20.4136C68.2671 20.4121 68.2947 20.4224 68.3151 20.4421C68.3356 20.4618 68.3471 20.4893 68.3471 20.5179V24.4079C68.3474 24.4613 68.3079 24.5064 68.2557 24.5122L68.1855 24.5201C65.187 24.841 63.0658 24.5428 61.824 23.6267C60.56 22.6936 59.929 21.0259 59.929 18.6234V11.3447H57.0041C56.9475 11.3447 56.9016 11.298 56.9016 11.2404V7.11014C56.9016 7.05346 56.9473 7.00584 57.0041 7.00584H59.9279V4.11816C59.9279 4.03426 59.977 3.95943 60.0517 3.92542L64.2718 2.05813C64.3036 2.04347 64.3405 2.04625 64.3699 2.06551C64.3992 2.08477 64.4168 2.11787 64.4167 2.15336V7.00584H68.2446C68.3003 7.00584 68.3471 7.05232 68.3471 7.11014V11.2404H68.3482ZM76.4854 10.016C76.9023 8.89581 77.5923 8.0557 78.5542 7.49562C79.5033 6.94604 80.5765 6.65692 81.6686 6.65664C81.7255 6.65664 81.7723 6.70312 81.7723 6.76208V11.5068C81.7723 11.5549 81.7522 11.6006 81.7172 11.6328C81.6821 11.665 81.6353 11.6806 81.5884 11.6758C80.2942 11.5579 79.1316 11.8447 78.1017 12.5352C77.0238 13.2574 76.4854 14.4592 76.4854 16.1394V24.3977C76.4854 24.4255 76.4744 24.4522 76.4549 24.4718C76.4355 24.4914 76.4091 24.5023 76.3817 24.502H72.0991C72.0425 24.502 71.9966 24.4553 71.9966 24.3977V7.10901C71.9966 7.05232 72.0423 7.0047 72.0991 7.0047H76.3817C76.4374 7.0047 76.4843 7.05119 76.4843 7.10901V10.0137L76.4854 10.016ZM97.7044 7.00584C97.677 7.00553 97.6506 7.01639 97.6312 7.03598C97.6117 7.05558 97.6007 7.08228 97.6007 7.11014V9.07154C96.2564 7.36751 94.3659 6.51606 91.9304 6.51606C89.6118 6.51606 87.6221 7.40832 85.9646 9.19285C84.306 10.9774 83.4766 13.1644 83.4766 15.7539C83.4766 18.3434 84.306 20.5304 85.9646 22.3149C87.6221 24.0995 89.6118 24.9917 91.9304 24.9917C94.3659 24.9917 96.2553 24.1403 97.6007 22.4374V24.3977C97.6007 24.4543 97.6476 24.502 97.7044 24.502H101.986C102.043 24.502 102.09 24.4555 102.09 24.3977V7.10901C102.09 7.08115 102.079 7.05444 102.059 7.03485C102.04 7.01526 102.013 7.0044 101.986 7.0047H97.7044V7.00584ZM89.322 19.323C90.226 20.2334 91.373 20.688 92.7664 20.688C94.1575 20.688 95.3112 20.2266 96.2275 19.3048C97.1437 18.3842 97.6007 17.2006 97.6007 15.7539C97.6007 14.3072 97.1437 13.1236 96.2275 12.2018C95.3112 11.2812 94.1575 10.8198 92.7653 10.8198C91.3741 10.8198 90.226 11.2812 89.3209 12.203C88.418 13.1236 87.9643 14.3072 87.9643 15.7539C87.9643 17.2006 88.4169 18.3899 89.322 19.323ZM122.038 9.19285C120.379 7.40832 118.378 6.51606 116.036 6.51606C113.601 6.51606 111.723 7.36751 110.401 9.07041V7.11014C110.401 7.05254 110.355 7.00584 110.298 7.00584H106.015C105.959 7.00584 105.913 7.05254 105.913 7.11014V31.3952C105.913 31.453 105.959 31.5006 106.015 31.5006H110.298C110.354 31.5006 110.401 31.453 110.401 31.3952V22.4374C111.723 24.1403 113.601 24.9917 116.036 24.9917C118.378 24.9917 120.379 24.0995 122.038 22.3149C123.695 20.5304 124.525 18.3434 124.525 15.7539C124.525 13.1644 123.695 10.9774 122.038 9.19285ZM111.757 19.323C112.662 20.2334 113.809 20.688 115.202 20.688C116.593 20.688 117.746 20.2266 118.663 19.3048C119.579 18.3842 120.037 17.2006 120.037 15.7539C120.037 14.3072 119.579 13.1236 118.663 12.2018C117.746 11.2812 116.593 10.8198 115.202 10.8198C113.809 10.8198 112.662 11.2812 111.757 12.203C110.853 13.1236 110.401 14.3072 110.401 15.7539C110.401 17.2006 110.853 18.3899 111.757 19.323ZM127.3 24.502C127.244 24.502 127.198 24.4553 127.198 24.3977V7.10901C127.198 7.05232 127.243 7.0047 127.3 7.0047H131.583C131.64 7.0047 131.685 7.05119 131.685 7.10901V24.3988C131.685 24.4564 131.639 24.5031 131.583 24.5031H127.3V24.502ZM47.283 13.1122C46.6677 12.8209 46.3612 12.4411 46.3612 11.9751C46.3612 11.5318 46.5518 11.1815 46.9352 10.9252C47.3176 10.669 47.7991 10.5398 48.3787 10.5398C49.4901 10.5398 50.3294 10.9763 50.8979 11.8481C50.937 11.9092 51.0135 11.9331 51.0796 11.9048L54.8673 10.2189C54.8938 10.2068 54.914 10.1839 54.9229 10.1558C54.9318 10.1277 54.9286 10.0971 54.9141 10.0715C54.8705 9.99759 54.8259 9.92427 54.7803 9.85157C54.1327 8.82552 53.2934 8.06023 52.24 7.47861C51.0807 6.83691 49.7933 6.51606 48.3787 6.51606C46.4994 6.51606 44.9288 7.01151 43.6637 8.00354C42.4007 8.99445 41.7687 10.3538 41.7687 12.0794C41.7687 13.2234 42.0764 14.1734 42.6905 14.9319C43.2841 15.6745 44.0574 16.2473 44.9344 16.594C45.815 16.9432 46.6967 17.2357 47.5784 17.4681C48.459 17.7017 49.2081 17.9647 49.8223 18.2561C50.4364 18.5475 50.7441 18.9262 50.7441 19.3933C50.7441 20.3966 49.9438 20.8978 48.3442 20.8978C46.8204 20.8978 45.7648 20.3309 45.1774 19.1994C45.1285 19.1004 45.0123 19.0572 44.9121 19.1007L41.1356 20.7844C41.1101 20.7957 41.0903 20.8171 41.0806 20.8436C41.071 20.8701 41.0723 20.8995 41.0843 20.925L41.1266 21.0123C42.4464 23.6653 44.8519 24.9917 48.3442 24.9917C50.3384 24.9917 52.0026 24.5076 53.3357 23.5405C54.67 22.5712 55.3366 21.1891 55.3366 19.3933C55.3366 18.2028 55.0289 17.2119 54.4147 16.4183C53.8357 15.6524 53.0589 15.0652 52.1709 14.7222C51.3066 14.3893 50.4237 14.1088 49.5269 13.8821C48.6452 13.6599 47.8972 13.4036 47.283 13.1111V13.1122Z" fill="#2F2E8B"/>
</svg>
